<?xml version="1.0" encoding="UTF-8" standalone="no"?>
<!-- Created with Inkscape (http://www.inkscape.org/) -->

<svg
   xmlns:dc="http://purl.org/dc/elements/1.1/"
   xmlns:cc="http://creativecommons.org/ns#"
   xmlns:rdf="http://www.w3.org/1999/02/22-rdf-syntax-ns#"
   xmlns:svg="http://www.w3.org/2000/svg"
   xmlns="http://www.w3.org/2000/svg"
   xmlns:xlink="http://www.w3.org/1999/xlink"
   xmlns:sodipodi="http://sodipodi.sourceforge.net/DTD/sodipodi-0.dtd"
   xmlns:inkscape="http://www.inkscape.org/namespaces/inkscape"
   width="563.5318"
   height="560.79596"
   id="svg3049"
   version="1.1"
   inkscape:version="0.48.2 r9819"
   sodipodi:docname="enemy_bullet.png">
  <defs
     id="defs3051">
    <linearGradient
       id="linearGradient5396">
      <stop
         style="stop-color:#00ff00;stop-opacity:1;"
         offset="0"
         id="stop5398" />
      <stop
         style="stop-color:#abffaf;stop-opacity:1;"
         offset="1"
         id="stop5400" />
    </linearGradient>
    <radialGradient
       inkscape:collect="always"
       xlink:href="#linearGradient5396"
       id="radialGradient5402"
       cx="233.94838"
       cy="629.84918"
       fx="233.94838"
       fy="629.84918"
       r="281.76591"
       gradientTransform="matrix(1.4368425,-0.04407268,0.04178526,1.3626673,-128.51701,-218.06092)"
       gradientUnits="userSpaceOnUse" />
  </defs>
  <sodipodi:namedview
     id="base"
     pagecolor="#ffffff"
     bordercolor="#666666"
     borderopacity="1.0"
     inkscape:pageopacity="0.0"
     inkscape:pageshadow="2"
     inkscape:zoom="0.175"
     inkscape:cx="621.89276"
     inkscape:cy="758.94996"
     inkscape:document-units="px"
     inkscape:current-layer="layer1"
     showgrid="false"
     inkscape:window-width="1280"
     inkscape:window-height="748"
     inkscape:window-x="-8"
     inkscape:window-y="-8"
     inkscape:window-maximized="1"
     fit-margin-top="0"
     fit-margin-left="0"
     fit-margin-right="0"
     fit-margin-bottom="0" />
  <metadata
     id="metadata3054">
    <rdf:RDF>
      <cc:Work
         rdf:about="">
        <dc:format>image/svg+xml</dc:format>
        <dc:type
           rdf:resource="http://purl.org/dc/dcmitype/StillImage" />
        <dc:title></dc:title>
      </cc:Work>
    </rdf:RDF>
  </metadata>
  <g
     inkscape:label="Layer 1"
     inkscape:groupmode="layer"
     id="layer1"
     transform="translate(50.337334,-360.53563)">
    <path
       sodipodi:type="star"
       style="fill:url(#radialGradient5402);fill-rule:evenodd;stroke:#000000;stroke-width:5;stroke-linecap:butt;stroke-linejoin:miter;stroke-miterlimit:4;stroke-opacity:1;stroke-dasharray:none;fill-opacity:1"
       id="path3057"
       sodipodi:sides="30"
       sodipodi:cx="231.42857"
       sodipodi:cy="640.93359"
       sodipodi:r1="279.2702"
       sodipodi:r2="244.76656"
       sodipodi:arg1="-0.84330437"
       sodipodi:arg2="-0.74218012"
       inkscape:flatsided="false"
       inkscape:rounded="0"
       inkscape:randomized="0"
       d="m 417.14287,432.36215 -5.32213,43.13464 44.62827,0.0353 -14.17403,41.08552 43.64569,9.31328 -22.40645,37.24075 40.75559,18.18422 -29.6596,31.76838 36.08427,26.26042 -35.61649,24.90759 29.8359,33.1889 -40.01676,16.95822 22.28355,38.66688 -42.66812,8.26768 13.75731,42.45493 -43.45466,-0.78419 4.6298,44.38749 -42.34203,-9.80178 -4.70005,44.38011 -39.37885,-18.39099 -13.82449,42.43309 -34.69463,-26.17642 -22.34472,38.63156 -28.49408,-32.81783 -29.88839,33.14164 -21.04821,-38.02493 -36.12579,26.20327 -12.68243,-41.57017 -40.784319,18.11969 -3.762364,-43.29858 -43.66038,9.2442 5.322134,-43.13465 -44.628272,-0.0353 14.174029,-41.08552 -43.645694,-9.31328 22.40645056,-37.24075 -40.75559056,-18.18422 29.659604,-31.76839 -36.084272,-26.26041 35.616489,-24.90759 -29.835896,-33.1889 40.0167625,-16.95822 -22.2835505,-38.66688 42.668113,-8.26769 -13.7573056,-42.45492 43.4546606,0.78418 -4.629801,-44.38748 42.342032,9.80177 4.700049,-44.3801 39.378851,18.39099 13.82449,-42.4331 34.69462,26.17643 22.34473,-38.63156 28.49408,32.81783 29.88839,-33.14164 21.04821,38.02493 36.12579,-26.20327 12.68243,41.57016 40.78432,-18.11968 3.76236,43.29858 z"
       inkscape:transform-center-x="8.5445682"
       inkscape:transform-center-y="18.410525" />
  </g>
</svg>
