<?xml version="1.0" encoding="UTF-8" standalone="no"?>
<!-- Created with Inkscape (http://www.inkscape.org/) -->

<svg
   xmlns:dc="http://purl.org/dc/elements/1.1/"
   xmlns:cc="http://creativecommons.org/ns#"
   xmlns:rdf="http://www.w3.org/1999/02/22-rdf-syntax-ns#"
   xmlns:svg="http://www.w3.org/2000/svg"
   xmlns="http://www.w3.org/2000/svg"
   xmlns:sodipodi="http://sodipodi.sourceforge.net/DTD/sodipodi-0.dtd"
   xmlns:inkscape="http://www.inkscape.org/namespaces/inkscape"
   sodipodi:docname="C:\Users\GUILHE~1\AppData\Local\Temp\ink_ext_XXXXXX.svg4XF8NW"
   inkscape:version="0.48.2 r9819"
   version="1.1"
   id="svg2986"
   height="128"
   width="512"
   inkscape:export-filename="C:\Users\Guilherme Baptista\workspace\CS638-Game\cs638-game-android\assets\explosion.png"
   inkscape:export-xdpi="90">
  <sodipodi:namedview
     id="base"
     pagecolor="#ffffff"
     bordercolor="#666666"
     borderopacity="1.0"
     inkscape:pageopacity="0.0"
     inkscape:pageshadow="2"
     inkscape:zoom="2"
     inkscape:cx="242.98034"
     inkscape:cy="67.79423"
     inkscape:document-units="px"
     inkscape:current-layer="layer1"
     showgrid="false"
     fit-margin-top="0"
     fit-margin-left="0"
     fit-margin-right="0"
     fit-margin-bottom="0"
     inkscape:snap-global="false"
     inkscape:window-width="1280"
     inkscape:window-height="706"
     inkscape:window-x="-8"
     inkscape:window-y="-8"
     inkscape:window-maximized="1"
     showguides="true"
     inkscape:guide-bbox="true">
    <inkscape:grid
       type="xygrid"
       id="grid3006"
       empspacing="5"
       visible="true"
       enabled="true"
       snapvisiblegridlinesonly="true" />
    <sodipodi:guide
       id="guide8282"
       position="83.215208,64"
       orientation="0,1" />
    <sodipodi:guide
       id="guide8300"
       position="32,98"
       orientation="1,0" />
    <sodipodi:guide
       id="guide8302"
       position="32,96"
       orientation="0,1" />
    <sodipodi:guide
       id="guide8304"
       position="32,32"
       orientation="0,1" />
    <sodipodi:guide
       id="guide8306"
       position="96,128"
       orientation="1,0" />
    <sodipodi:guide
       id="guide8308"
       position="160,116"
       orientation="1,0" />
    <sodipodi:guide
       id="guide3073"
       position="288,159.5"
       orientation="1,0" />
    <sodipodi:guide
       id="guide3075"
       position="352,102"
       orientation="1,0" />
    <sodipodi:guide
       id="guide3077"
       position="224,126.5"
       orientation="1,0" />
    <sodipodi:guide
       id="guide3079"
       position="416,150"
       orientation="1,0" />
    <sodipodi:guide
       id="guide3081"
       position="480,172"
       orientation="1,0" />
  </sodipodi:namedview>
  <defs
     id="defs2988">
    <filter
       id="filter3018"
       inkscape:label="Noisy blur"
       inkscape:menu="Blurs"
       inkscape:menu-tooltip="Small-scale roughening and blurring to edges and content"
       x="-0.25"
       width="1.5"
       y="-0.25"
       height="1.5"
       color-interpolation-filters="sRGB">
      <feGaussianBlur
         id="feGaussianBlur3020"
         stdDeviation="0.10000000000000001"
         result="result1" />
      <feTurbulence
         id="feTurbulence3022"
         numOctaves="1"
         seed="0"
         type="fractalNoise"
         baseFrequency="0.1"
         result="result2" />
      <feDisplacementMap
         id="feDisplacementMap3024"
         in2="result2"
         scale="5"
         yChannelSelector="G"
         xChannelSelector="R"
         result="result3"
         in="result1" />
      <feComposite
         id="feComposite3026"
         in2="result3"
         operator="atop" />
    </filter>
    <filter
       color-interpolation-filters="sRGB"
       height="1.5"
       y="-0.25"
       width="1.5"
       x="-0.25"
       inkscape:menu-tooltip="Small-scale roughening and blurring to edges and content"
       inkscape:menu="Blurs"
       inkscape:label="Noisy blur"
       id="filter3028">
      <feGaussianBlur
         result="result1"
         stdDeviation="0.01"
         id="feGaussianBlur3030" />
      <feTurbulence
         result="result2"
         baseFrequency="0.1"
         type="fractalNoise"
         seed="0"
         numOctaves="1"
         id="feTurbulence3032" />
      <feDisplacementMap
         in="result1"
         result="result3"
         xChannelSelector="R"
         yChannelSelector="G"
         scale="5"
         in2="result2"
         id="feDisplacementMap3034" />
      <feComposite
         operator="atop"
         in2="result3"
         id="feComposite3036" />
    </filter>
    <filter
       color-interpolation-filters="sRGB"
       height="1.5"
       y="-0.25"
       width="1.5"
       x="-0.25"
       inkscape:menu-tooltip="Small-scale roughening and blurring to edges and content"
       inkscape:menu="Blurs"
       inkscape:label="Noisy blur"
       id="filter3086">
      <feGaussianBlur
         result="result1"
         stdDeviation="1"
         id="feGaussianBlur3088" />
      <feTurbulence
         result="result2"
         baseFrequency="0.1"
         type="fractalNoise"
         seed="0"
         numOctaves="1"
         id="feTurbulence3090" />
      <feDisplacementMap
         in="result1"
         result="result3"
         xChannelSelector="R"
         yChannelSelector="G"
         scale="5"
         in2="result2"
         id="feDisplacementMap3092" />
      <feComposite
         operator="atop"
         in2="result3"
         id="feComposite3094" />
    </filter>
    <filter
       color-interpolation-filters="sRGB"
       height="1.5"
       y="-0.25"
       width="1.5"
       x="-0.25"
       inkscape:menu-tooltip="Small-scale roughening and blurring to edges and content"
       inkscape:menu="Blurs"
       inkscape:label="Noisy blur"
       id="filter3096">
      <feGaussianBlur
         result="result1"
         stdDeviation="0.5"
         id="feGaussianBlur3098" />
      <feTurbulence
         result="result2"
         baseFrequency="0.1"
         type="fractalNoise"
         seed="0"
         numOctaves="1"
         id="feTurbulence3100" />
      <feDisplacementMap
         in="result1"
         result="result3"
         xChannelSelector="R"
         yChannelSelector="G"
         scale="5"
         in2="result2"
         id="feDisplacementMap3102" />
      <feComposite
         operator="atop"
         in2="result3"
         id="feComposite3104" />
    </filter>
    <filter
       color-interpolation-filters="sRGB"
       height="1.5"
       y="-0.25"
       width="1.5"
       x="-0.25"
       inkscape:menu-tooltip="Small-scale roughening and blurring to edges and content"
       inkscape:menu="Blurs"
       inkscape:label="Noisy blur"
       id="filter3028-5">
      <feGaussianBlur
         result="result1"
         stdDeviation="5.5"
         id="feGaussianBlur3030-5" />
      <feTurbulence
         result="result2"
         baseFrequency="0.1"
         type="fractalNoise"
         seed="0"
         numOctaves="1"
         id="feTurbulence3032-1" />
      <feDisplacementMap
         in="result1"
         result="result3"
         xChannelSelector="R"
         yChannelSelector="G"
         scale="5"
         in2="result2"
         id="feDisplacementMap3034-7" />
      <feComposite
         operator="atop"
         in2="result3"
         id="feComposite3036-1" />
    </filter>
    <filter
       color-interpolation-filters="sRGB"
       height="1.5"
       y="-0.25"
       width="1.5"
       x="-0.25"
       inkscape:menu-tooltip="Small-scale roughening and blurring to edges and content"
       inkscape:menu="Blurs"
       inkscape:label="Noisy blur"
       id="filter6056">
      <feGaussianBlur
         result="result1"
         stdDeviation="5.5"
         id="feGaussianBlur6058" />
      <feTurbulence
         result="result2"
         baseFrequency="0.1"
         type="fractalNoise"
         seed="0"
         numOctaves="1"
         id="feTurbulence6060" />
      <feDisplacementMap
         in="result1"
         result="result3"
         xChannelSelector="R"
         yChannelSelector="G"
         scale="5"
         in2="result2"
         id="feDisplacementMap6062" />
      <feComposite
         operator="atop"
         in2="result3"
         id="feComposite6064" />
    </filter>
    <filter
       id="filter3018-1"
       inkscape:label="Noisy blur"
       inkscape:menu="Blurs"
       inkscape:menu-tooltip="Small-scale roughening and blurring to edges and content"
       x="-0.25"
       width="1.5"
       y="-0.25"
       height="1.5"
       color-interpolation-filters="sRGB">
      <feGaussianBlur
         id="feGaussianBlur3020-5"
         stdDeviation="0.10000000000000001"
         result="result1" />
      <feTurbulence
         id="feTurbulence3022-2"
         numOctaves="1"
         seed="0"
         type="fractalNoise"
         baseFrequency="0.1"
         result="result2" />
      <feDisplacementMap
         id="feDisplacementMap3024-7"
         in2="result2"
         scale="5"
         yChannelSelector="G"
         xChannelSelector="R"
         result="result3"
         in="result1" />
      <feComposite
         id="feComposite3026-6"
         in2="result3"
         operator="atop" />
    </filter>
    <filter
       id="filter6071"
       inkscape:label="Noisy blur"
       inkscape:menu="Blurs"
       inkscape:menu-tooltip="Small-scale roughening and blurring to edges and content"
       x="-0.25"
       width="1.5"
       y="-0.25"
       height="1.5"
       color-interpolation-filters="sRGB">
      <feGaussianBlur
         id="feGaussianBlur6073"
         stdDeviation="0.10000000000000001"
         result="result1" />
      <feTurbulence
         id="feTurbulence6075"
         numOctaves="1"
         seed="0"
         type="fractalNoise"
         baseFrequency="0.1"
         result="result2" />
      <feDisplacementMap
         id="feDisplacementMap6077"
         in2="result2"
         scale="5"
         yChannelSelector="G"
         xChannelSelector="R"
         result="result3"
         in="result1" />
      <feComposite
         id="feComposite6079"
         in2="result3"
         operator="atop" />
    </filter>
    <filter
       color-interpolation-filters="sRGB"
       height="1.5"
       y="-0.25"
       width="1.5"
       x="-0.25"
       inkscape:menu-tooltip="Small-scale roughening and blurring to edges and content"
       inkscape:menu="Blurs"
       inkscape:label="Noisy blur"
       id="filter3028-2">
      <feGaussianBlur
         result="result1"
         stdDeviation="0.01"
         id="feGaussianBlur3030-2" />
      <feTurbulence
         result="result2"
         baseFrequency="0.1"
         type="fractalNoise"
         seed="0"
         numOctaves="1"
         id="feTurbulence3032-16" />
      <feDisplacementMap
         in="result1"
         result="result3"
         xChannelSelector="R"
         yChannelSelector="G"
         scale="5"
         in2="result2"
         id="feDisplacementMap3034-8" />
      <feComposite
         operator="atop"
         in2="result3"
         id="feComposite3036-5" />
    </filter>
    <filter
       color-interpolation-filters="sRGB"
       height="1.5"
       y="-0.25"
       width="1.5"
       x="-0.25"
       inkscape:menu-tooltip="Small-scale roughening and blurring to edges and content"
       inkscape:menu="Blurs"
       inkscape:label="Noisy blur"
       id="filter7343">
      <feGaussianBlur
         result="result1"
         stdDeviation="0.01"
         id="feGaussianBlur7345" />
      <feTurbulence
         result="result2"
         baseFrequency="0.1"
         type="fractalNoise"
         seed="0"
         numOctaves="1"
         id="feTurbulence7347" />
      <feDisplacementMap
         in="result1"
         result="result3"
         xChannelSelector="R"
         yChannelSelector="G"
         scale="5"
         in2="result2"
         id="feDisplacementMap7349" />
      <feComposite
         operator="atop"
         in2="result3"
         id="feComposite7351" />
    </filter>
    <filter
       id="filter3018-7"
       inkscape:label="Noisy blur"
       inkscape:menu="Blurs"
       inkscape:menu-tooltip="Small-scale roughening and blurring to edges and content"
       x="-0.25"
       width="1.5"
       y="-0.25"
       height="1.5"
       color-interpolation-filters="sRGB">
      <feGaussianBlur
         id="feGaussianBlur3020-6"
         stdDeviation="0.10000000000000001"
         result="result1" />
      <feTurbulence
         id="feTurbulence3022-1"
         numOctaves="1"
         seed="0"
         type="fractalNoise"
         baseFrequency="0.1"
         result="result2" />
      <feDisplacementMap
         id="feDisplacementMap3024-8"
         in2="result2"
         scale="5"
         yChannelSelector="G"
         xChannelSelector="R"
         result="result3"
         in="result1" />
      <feComposite
         id="feComposite3026-9"
         in2="result3"
         operator="atop" />
    </filter>
    <filter
       id="filter7358"
       inkscape:label="Noisy blur"
       inkscape:menu="Blurs"
       inkscape:menu-tooltip="Small-scale roughening and blurring to edges and content"
       x="-0.25"
       width="1.5"
       y="-0.25"
       height="1.5"
       color-interpolation-filters="sRGB">
      <feGaussianBlur
         id="feGaussianBlur7360"
         stdDeviation="0.10000000000000001"
         result="result1" />
      <feTurbulence
         id="feTurbulence7362"
         numOctaves="1"
         seed="0"
         type="fractalNoise"
         baseFrequency="0.1"
         result="result2" />
      <feDisplacementMap
         id="feDisplacementMap7364"
         in2="result2"
         scale="5"
         yChannelSelector="G"
         xChannelSelector="R"
         result="result3"
         in="result1" />
      <feComposite
         id="feComposite7366"
         in2="result3"
         operator="atop" />
    </filter>
  </defs>
  <metadata
     id="metadata2991">
    <rdf:RDF>
      <cc:Work
         rdf:about="">
        <dc:format>image/svg+xml</dc:format>
        <dc:type
           rdf:resource="http://purl.org/dc/dcmitype/StillImage" />
        <dc:title />
      </cc:Work>
    </rdf:RDF>
  </metadata>
  <g
     inkscape:label="Layer 1"
     inkscape:groupmode="layer"
     id="layer1"
     transform="translate(-308.50298,-761.4705)">
    <path
       sodipodi:type="star"
       style="fill:#ff4a26;fill-opacity:1;stroke:#770000;stroke-width:2;stroke-miterlimit:4;stroke-opacity:1;stroke-dasharray:none"
       id="path3044"
       sodipodi:sides="12"
       sodipodi:cx="8"
       sodipodi:cy="16.999996"
       sodipodi:r1="28.653097"
       sodipodi:r2="21.260292"
       sodipodi:arg1="-1.060308"
       sodipodi:arg2="-0.85196633"
       inkscape:flatsided="false"
       inkscape:rounded="0"
       inkscape:randomized="0"
       d="m 22,-8.0000034 0,8.99999922 10.624355,1.34936558 -4.499999,7.7942286 8.526279,6.480762 -7.794228,4.5 L 33,30.999996 l -9,0 -1.349365,10.624356 -7.794228,-4.5 -6.4807628,8.526279 -4.4999999,-7.794228 -9.8756442,4.143593 -3e-7,-8.999999 -10.6243548,-1.349366 4.499999,-7.794228 -8.526279,-6.480763 7.794228,-4.499999 L -17,2.9999963 l 8.9999996,-4e-7 1.3493656,-10.6243551 7.7942281,4.4999993 6.4807625,-8.5262791 4.5000002,7.7942283 z"
       transform="matrix(0.73918474,0,0,0.73518108,335.00479,781.18234)" />
    <path
       sodipodi:type="star"
       style="fill:#ff9f47;fill-opacity:1;stroke:#e14800;stroke-width:2;stroke-miterlimit:4;stroke-opacity:1;stroke-dasharray:none"
       id="path3044-1"
       sodipodi:sides="12"
       sodipodi:cx="8"
       sodipodi:cy="16.999996"
       sodipodi:r1="28.653097"
       sodipodi:r2="21.260292"
       sodipodi:arg1="-1.060308"
       sodipodi:arg2="-0.85196633"
       inkscape:flatsided="false"
       inkscape:rounded="0"
       inkscape:randomized="0"
       d="m 22,-8.0000034 0,8.99999922 10.624355,1.34936558 -4.499999,7.7942286 8.526279,6.480762 -7.794228,4.5 L 33,30.999996 l -9,0 -1.349365,10.624356 -7.794228,-4.5 -6.4807628,8.526279 -4.4999999,-7.794228 -9.8756442,4.143593 -3e-7,-8.999999 -10.6243548,-1.349366 4.499999,-7.794228 -8.526279,-6.480763 7.794228,-4.499999 L -17,2.9999963 l 8.9999996,-4e-7 1.3493656,-10.6243551 7.7942281,4.4999993 6.4807625,-8.5262791 4.5000002,7.7942283 z"
       transform="matrix(0.44663095,0,0,-0.44421185,337.54593,801.2794)" />
    <path
       sodipodi:type="star"
       style="fill:#ffe97d;fill-opacity:1;stroke:#b07600;stroke-width:2;stroke-miterlimit:4;stroke-opacity:1;stroke-dasharray:none"
       id="path3044-1-7"
       sodipodi:sides="12"
       sodipodi:cx="8"
       sodipodi:cy="16.999996"
       sodipodi:r1="28.653097"
       sodipodi:r2="21.260292"
       sodipodi:arg1="-1.060308"
       sodipodi:arg2="-0.85196633"
       inkscape:flatsided="false"
       inkscape:rounded="0"
       inkscape:randomized="0"
       d="m 22,-8.0000034 0,8.99999922 10.624355,1.34936558 -4.499999,7.7942286 8.526279,6.480762 -7.794228,4.5 L 33,30.999996 l -9,0 -1.349365,10.624356 -7.794228,-4.5 -6.4807628,8.526279 -4.4999999,-7.794228 -9.8756442,4.143593 -3e-7,-8.999999 -10.6243548,-1.349366 4.499999,-7.794228 -8.526279,-6.480763 7.794228,-4.499999 L -17,2.9999963 l 8.9999996,-4e-7 1.3493656,-10.6243551 7.7942281,4.4999993 6.4807625,-8.5262791 4.5000002,7.7942283 z"
       transform="matrix(0.20819736,0,0,-0.20706969,339.31209,797.10491)" />
    <path
       sodipodi:type="star"
       style="fill:#e25d43;fill-opacity:0.78723408;stroke:#671010;stroke-width:2;stroke-miterlimit:4;stroke-opacity:0.74468085;stroke-dasharray:none"
       id="path3044-0"
       sodipodi:sides="12"
       sodipodi:cx="8"
       sodipodi:cy="16.999996"
       sodipodi:r1="26.354483"
       sodipodi:r2="22.140057"
       sodipodi:arg1="-1.0587996"
       sodipodi:arg2="-0.81947801"
       inkscape:flatsided="false"
       inkscape:rounded="0"
       inkscape:randomized="0"
       d="m 20.911559,-5.9749988 2.201305,6.79527148 7.556372,2.73857392 -1.49125,6.9855304 5.174723,6.14986 -4.784225,5.304021 1.406511,7.913297 -6.795271,2.201305 -2.738574,7.556372 -6.98553,-1.49125 -6.1498609,5.174723 -5.3040214,-4.784225 -7.913297,1.406511 -2.2013046,-6.795271 -7.5563721,-2.738574 1.49125,-6.98553 -5.174723,-6.149861 4.784225,-5.304021 -1.406511,-7.9132971 6.7952715,-2.2013046 2.7385739,-7.5563719 6.98553,1.49125 6.1498605,-5.1747231 5.3040211,4.7842254 z"
       transform="matrix(0.98470901,0,0,0.98021119,461.12553,777.07823)" />
    <path
       sodipodi:type="star"
       style="fill:#e6a060;fill-opacity:0.90957444;stroke:#c3531e;stroke-width:2;stroke-miterlimit:4;stroke-opacity:0.9414896;stroke-dasharray:none"
       id="path3044-1-9"
       sodipodi:sides="12"
       sodipodi:cx="8"
       sodipodi:cy="16.999996"
       sodipodi:r1="28.653097"
       sodipodi:r2="24.504038"
       sodipodi:arg1="-1.060308"
       sodipodi:arg2="-0.80762953"
       inkscape:flatsided="false"
       inkscape:rounded="0"
       inkscape:randomized="0"
       d="m 22,-8.0000034 2.937519,7.29213934 7.686836,3.05722546 -1.102103,7.7839376 5.128383,6.491053 -4.846419,6.190036 L 33,30.999996 l -7.29214,2.937519 -3.057225,7.686837 -7.783938,-1.102104 -6.4910528,5.128383 -6.190036,-4.846418 -8.1856081,1.195783 -2.9375193,-7.29214 -7.6868358,-3.057225 1.102103,-7.783938 -5.128383,-6.491053 4.846419,-6.190036 L -17,2.9999963 l 7.2921398,-2.93751932 3.0572254,-7.68683618 7.7839376,1.1021034 6.491053,-5.1283832 6.1900362,4.8464188 z"
       transform="matrix(0.58378333,0,0,-0.58111678,464.56502,803.67564)" />
    <path
       sodipodi:type="star"
       style="fill:#ebdc91;fill-opacity:1;stroke:#7c5b17;stroke-width:2;stroke-miterlimit:4;stroke-opacity:0.97872338;stroke-dasharray:none"
       id="path3044-1-7-4"
       sodipodi:sides="12"
       sodipodi:cx="8"
       sodipodi:cy="16.999996"
       sodipodi:r1="28.653097"
       sodipodi:r2="24.126017"
       sodipodi:arg1="-1.060308"
       sodipodi:arg2="-0.82885984"
       inkscape:flatsided="false"
       inkscape:rounded="0"
       inkscape:randomized="0"
       d="m 22,-8.0000034 2.302352,7.21523079 8.322003,3.13413401 -1.61372,7.3997491 5.64,6.8752415 -5.097397,5.601511 L 33,30.999996 l -7.215231,2.302352 -3.134134,8.322004 -7.399749,-1.613721 -6.8752418,5.64 -5.6015107,-5.097397 -8.7741334,1.446762 -2.302352,-7.215231 -8.3220031,-3.134134 1.61372,-7.399749 -5.64,-6.875242 5.097397,-5.60151 L -17,2.9999963 l 7.2152312,-2.30235199 3.134134,-8.32200351 7.39974916,1.6137201 6.87524144,-5.6399999 5.6015102,5.0973977 z"
       transform="matrix(0.13965676,0,0,-0.13901886,467.95461,795.99438)" />
    <g
       transform="matrix(1.2615509,0,0,1.1516724,81.55829,-127.3682)"
       id="g8314">
      <g
         transform="translate(-0.24992722,-1.3894542)"
         id="g3087">
        <path
           sodipodi:type="star"
           style="fill:#e25d43;fill-opacity:0.78723408;stroke:#770000;stroke-width:2;stroke-miterlimit:4;stroke-opacity:0.74468085;stroke-dasharray:none;filter:url(#filter3018)"
           id="path3044-0-8"
           sodipodi:sides="12"
           sodipodi:cx="8"
           sodipodi:cy="16.999996"
           sodipodi:r1="26.354483"
           sodipodi:r2="22.140057"
           sodipodi:arg1="-1.0587996"
           sodipodi:arg2="-0.81947801"
           inkscape:flatsided="false"
           inkscape:rounded="0"
           inkscape:randomized="0"
           d="m 20.911559,-5.9749988 2.201305,6.79527148 7.556372,2.73857392 -1.49125,6.9855304 5.174723,6.14986 -4.784225,5.304021 1.406511,7.913297 -6.795271,2.201305 -2.738574,7.556372 -6.98553,-1.49125 -6.1498609,5.174723 -5.3040214,-4.784225 -7.913297,1.406511 -2.2013046,-6.795271 -7.5563721,-2.738574 1.49125,-6.98553 -5.174723,-6.149861 4.784225,-5.304021 -1.406511,-7.9132971 6.7952715,-2.2013046 2.7385739,-7.5563719 6.98553,1.49125 6.1498605,-5.1747231 5.3040211,4.7842254 z"
           transform="matrix(0.85479631,0,0,0.91890605,452.47304,785.65762)" />
        <g
           id="g8310">
          <path
             transform="matrix(0.62453324,0,0,-0.67137322,454.50469,812.74073)"
             d="m 22,-8.0000034 2.937519,7.29213934 7.686836,3.05722546 -1.102103,7.7839376 5.128383,6.491053 -4.846419,6.190036 L 33,30.999996 l -7.29214,2.937519 -3.057225,7.686837 -7.783938,-1.102104 -6.4910528,5.128383 -6.190036,-4.846418 -8.1856081,1.195783 -2.9375193,-7.29214 -7.6868358,-3.057225 1.102103,-7.783938 -5.128383,-6.491053 4.846419,-6.190036 L -17,2.9999963 l 7.2921398,-2.93751932 3.0572254,-7.68683618 7.7839376,1.1021034 6.491053,-5.1283832 6.1900362,4.8464188 z"
             inkscape:randomized="0"
             inkscape:rounded="0"
             inkscape:flatsided="false"
             sodipodi:arg2="-0.80762953"
             sodipodi:arg1="-1.060308"
             sodipodi:r2="24.504038"
             sodipodi:r1="28.653097"
             sodipodi:cy="16.999996"
             sodipodi:cx="8"
             sodipodi:sides="12"
             id="path3044-1-9-8"
             style="fill:#e6a060;fill-opacity:0.90957444;stroke:#c3531e;stroke-width:2;stroke-miterlimit:4;stroke-opacity:0.94117647;stroke-dasharray:none;filter:url(#filter3018)"
             sodipodi:type="star" />
          <path
             transform="matrix(0.04734055,0,0,-0.05089109,458.98877,802.04649)"
             d="m 22,-8.0000034 5.570984,4.1746425 5.053371,6.1747223 2.737293,6.4008387 1.288987,7.8741519 -0.829854,6.911935 L 33,30.999996 l -4.174643,5.570985 -6.174722,5.053371 -6.400839,2.737292 -7.8741518,1.288987 -6.9119353,-0.829854 -7.4637088,-2.820781 -5.5709841,-4.174643 -5.053371,-6.174722 -2.737293,-6.400839 -1.288987,-7.874152 0.829854,-6.911935 L -17,2.9999963 l 4.174643,-5.5709845 6.1747222,-5.053371 6.4008387,-2.7372928 7.8741519,-1.288987 6.9119352,0.829855 z"
             inkscape:randomized="0"
             inkscape:rounded="0"
             inkscape:flatsided="false"
             sodipodi:arg2="-0.81643983"
             sodipodi:arg1="-1.060308"
             sodipodi:r2="28.578295"
             sodipodi:r1="28.653097"
             sodipodi:cy="16.999996"
             sodipodi:cx="8"
             sodipodi:sides="12"
             id="path3044-1-7-4-2"
             style="fill:#ded39e;fill-opacity:1;stroke:#735820;stroke-width:2;stroke-miterlimit:4;stroke-opacity:0.98039216;stroke-dasharray:none;filter:url(#filter3018)"
             sodipodi:type="star" />
        </g>
      </g>
    </g>
    <g
       transform="matrix(1.1938524,0,0,1.1184611,-65.701309,-97.080385)"
       id="g8296">
      <path
         transform="matrix(0.85479631,0,0,0.91890605,335.08353,837.21401)"
         d="m 20.911559,-5.9749988 3.645547,6.12353041 6.11213,3.41031499 0.09537,7.1259064 3.588102,6.009484 -3.480359,6.218901 0.102645,6.998417 -6.12353,3.645547 -3.410315,6.11213 -7.125907,0.09537 -6.0094839,3.588102 -6.2189014,-3.480359 -6.998417,0.102645 -3.6455469,-6.12353 -6.1121298,-3.410315 -0.09537,-7.125906 -3.588102,-6.009485 3.480359,-6.218901 -0.102645,-6.9984171 6.1235304,-3.6455469 3.410315,-6.1121296 7.1259063,-0.095371 6.0094842,-3.588102 6.2189011,3.4803594 z"
         inkscape:randomized="0"
         inkscape:rounded="0"
         inkscape:flatsided="false"
         sodipodi:arg2="-0.7942088"
         sodipodi:arg1="-1.0587996"
         sodipodi:r2="23.624344"
         sodipodi:r1="26.354483"
         sodipodi:cy="16.999996"
         sodipodi:cx="8"
         sodipodi:sides="12"
         id="path3044-0-8-1"
         style="fill:#c57060;fill-opacity:0.5744681;stroke:#621515;stroke-width:2;stroke-miterlimit:4;stroke-opacity:0.64361704;stroke-dasharray:none;filter:url(#filter3018)"
         sodipodi:type="star" />
      <path
         transform="matrix(0.4928496,0,0,-0.52981331,338.16865,861.8906)"
         d="m 20.747557,-6.0582324 4.092923,5.25805672 5.728342,4.20493838 0.915547,6.6000723 2.858421,6.505755 -2.507149,6.173603 -0.777412,7.06336 -5.258057,4.092923 -4.204939,5.728342 -6.600072,0.915547 -6.5057545,2.858421 -6.1736037,-2.507149 -7.0633593,-0.777412 -4.0929231,-5.258057 -5.7283424,-4.204938 -0.915547,-6.600073 -2.858421,-6.505754 2.507149,-6.173604 0.777412,-7.0633593 5.2580571,-4.09292311 4.2049384,-5.72834249 6.6000723,-0.915547 6.5057547,-2.8584209 6.1736035,2.5071492 z"
         inkscape:randomized="0"
         inkscape:rounded="0"
         inkscape:flatsided="false"
         sodipodi:arg2="-0.8130953"
         sodipodi:arg1="-1.0657738"
         sodipodi:r2="24.504038"
         sodipodi:r1="26.347336"
         sodipodi:cy="16.999996"
         sodipodi:cx="8"
         sodipodi:sides="12"
         id="path3044-1-9-8-7"
         style="fill:#d1a075;fill-opacity:0.60638296;stroke:#ac5c35;stroke-width:2;stroke-miterlimit:4;stroke-opacity:0.79255317;stroke-dasharray:none;filter:url(#filter3018)"
         sodipodi:type="star" />
    </g>
    <g
       transform="translate(130,-0.5)"
       id="g3083">
      <path
         transform="matrix(1.1996816,0,0,1.1737288,394.90553,837.62438)"
         d="m 19.264852,-2.9113576 3.894196,3.77489327 4.552277,4.52514853 1.485026,5.2162518 1.679813,6.195032 -1.322055,5.259919 -1.642755,6.204962 -3.774893,3.894196 -4.525149,4.552276 -5.216251,1.485026 -6.1950325,1.679814 -5.2599193,-1.322056 -6.2049616,-1.642755 -3.894196,-3.774893 -4.5522766,-4.525149 -1.485026,-5.216251 -1.679813,-6.195032 1.322055,-5.25992 1.642755,-6.2049612 3.7748935,-3.894196 4.5251485,-4.5522769 5.2162515,-1.485026 6.195032,-1.6798132 5.2599195,1.3220555 z"
         inkscape:randomized="0"
         inkscape:rounded="0"
         inkscape:flatsided="false"
         sodipodi:arg2="-0.81661972"
         sodipodi:arg1="-1.0559413"
         sodipodi:r2="22.140057"
         sodipodi:r1="22.877039"
         sodipodi:cy="16.999996"
         sodipodi:cx="8"
         sodipodi:sides="12"
         id="path3044-0-8-1-0"
         style="fill:#ad8078;fill-opacity:0.35978836;stroke:#552222;stroke-width:2;stroke-miterlimit:4;stroke-opacity:0.49206351;stroke-dasharray:none;filter:url(#filter3018)"
         sodipodi:type="star" />
      <path
         transform="matrix(0.52631825,0,0,-0.51493235,400.63627,866.41147)"
         d="m 22,-8.0000034 6.738261,4.9350902 3.886094,5.4142746 3.36796,7.643044 0.65832,6.6319466 -0.904783,8.30305 L 33,30.999996 l -4.935091,6.738261 -5.414274,3.886095 -7.643044,3.36796 -6.6319468,0.658319 -8.30305027,-0.904783 -6.07259383,-2.745852 -6.7382611,-4.93509 -3.886094,-5.414275 -3.36796,-7.643044 -0.65832,-6.631947 0.904783,-8.3030499 L -17,2.9999963 l 4.935091,-6.738261 5.4142742,-3.8860945 7.643044,-3.3679598 6.6319466,-0.65832 8.3030502,0.904783 z"
         inkscape:randomized="0"
         inkscape:rounded="0"
         inkscape:flatsided="false"
         sodipodi:arg2="-0.76889723"
         sodipodi:arg1="-1.060308"
         sodipodi:r2="28.856127"
         sodipodi:r1="28.653097"
         sodipodi:cy="16.999996"
         sodipodi:cx="8"
         sodipodi:sides="12"
         id="path3044-1-9-8-7-9"
         style="fill:#b9a18d;fill-opacity:0.43386242;stroke:#916550;stroke-width:2;stroke-miterlimit:4;stroke-opacity:0.62433861;stroke-dasharray:none;filter:url(#filter3018)"
         sodipodi:type="star" />
    </g>
    <g
       transform="matrix(2.009881,0,0,1.8227829,-140.65034,-699.87589)"
       id="g8288">
      <path
         transform="matrix(0.64018866,0,0,0.68820281,455.92735,843.90262)"
         d="m 19.264852,-2.9113576 3.894196,3.77489327 4.552277,4.52514853 1.485026,5.2162518 1.679813,6.195032 -1.322055,5.259919 -1.642755,6.204962 -3.774893,3.894196 -4.525149,4.552276 -5.216251,1.485026 -6.1950325,1.679814 -5.2599193,-1.322056 -6.2049616,-1.642755 -3.894196,-3.774893 -4.5522766,-4.525149 -1.485026,-5.216251 -1.679813,-6.195032 1.322055,-5.25992 1.642755,-6.2049612 3.7748935,-3.894196 4.5251485,-4.5522769 5.2162515,-1.485026 6.195032,-1.6798132 5.2599195,1.3220555 z"
         inkscape:randomized="0"
         inkscape:rounded="0"
         inkscape:flatsided="false"
         sodipodi:arg2="-0.81661972"
         sodipodi:arg1="-1.0559413"
         sodipodi:r2="22.140057"
         sodipodi:r1="22.877039"
         sodipodi:cy="16.999996"
         sodipodi:cx="8"
         sodipodi:sides="12"
         id="path3044-0-8-1-0-4"
         style="fill:#929292;fill-opacity:0.17008799;stroke:#3c3c3c;stroke-width:2;stroke-miterlimit:4;stroke-opacity:0.21700882;stroke-dasharray:none;filter:url(#filter3028)"
         sodipodi:type="star" />
      <path
         transform="matrix(0.25783277,0,0,-0.27717024,459.63114,860.47854)"
         d="m 22,-8.0000034 6.738261,4.9350902 3.886094,5.4142746 3.36796,7.643044 0.65832,6.6319466 -0.904783,8.30305 L 33,30.999996 l -4.935091,6.738261 -5.414274,3.886095 -7.643044,3.36796 -6.6319468,0.658319 -8.30305027,-0.904783 -6.07259383,-2.745852 -6.7382611,-4.93509 -3.886094,-5.414275 -3.36796,-7.643044 -0.65832,-6.631947 0.904783,-8.3030499 L -17,2.9999963 l 4.935091,-6.738261 5.4142742,-3.8860945 7.643044,-3.3679598 6.6319466,-0.65832 8.3030502,0.904783 z"
         inkscape:randomized="0"
         inkscape:rounded="0"
         inkscape:flatsided="false"
         sodipodi:arg2="-0.76889723"
         sodipodi:arg1="-1.060308"
         sodipodi:r2="28.856127"
         sodipodi:r1="28.653097"
         sodipodi:cy="16.999996"
         sodipodi:cx="8"
         sodipodi:sides="12"
         id="path3044-1-9-8-7-9-8"
         style="fill:#a3a3a3;fill-opacity:0.12023459;stroke:#717171;stroke-width:2;stroke-miterlimit:4;stroke-opacity:0.19941346;stroke-dasharray:none;filter:url(#filter3028)"
         sodipodi:type="star" />
    </g>
    <g
       id="g3217">
      <path
         id="path3219"
         d="M416.49209242 773.261179088C416.49209242 773.261179088 417.361246742 779.24025592 417.542886415 779.798403502C417.564081012 779.863530864 417.612617388 779.904530458 417.678925676 779.912906449C418.293632604 779.99055556 425.173102528 781.7317945 425.222425262 781.738024894C425.22281363 781.738073953 425.22296438 781.738307619 425.222875454 781.73872228C425.212734293 781.786009997 422.965734237 787.373486468 422.846678263 787.92863841C422.833147704 787.991730719 422.853316755 788.047768781 422.903516685 788.08571871C423.37456589 788.441820484 428.374825332 793.30990251 428.518119929 793.41822975C428.522444715 793.421499184 428.522904899 793.425122105 428.519478838 793.428903051C428.40956983 793.550196871 423.705578357 797.216523668 423.348742352 797.610322163C423.30990963 797.653177332 423.300538518 797.70553529 423.322577658 797.757777833C423.539933425 798.273007464 425.417062168 804.959449661 425.506982123 805.172599862C425.510542405 805.181039311 425.507779182 805.186896451 425.498906418 805.189757624C425.291052025 805.256783792 419.416084608 806.078634647 418.922755505 806.237716968C418.869660594 806.254838321 418.836605601 806.293784327 418.829725827 806.347659502C418.760131674 806.892647895 417.023695145 813.63516056 416.99498763 813.859967698C416.993881256 813.868631665 416.98881831 813.872161372 416.980162096 813.87032191C416.772478064 813.826188656 411.286076534 811.618311953 410.763981346 811.507365728C410.705592851 811.494958061 410.653719437 811.513662699 410.618160762 811.560191334C410.269167305 812.016850341 405.349716207 817.028096101 405.253886464 817.153489614C405.251389897 817.156756379 405.248428535 817.156916741 405.245146898 817.153970226C405.132406321 817.052742769 401.470352468 812.39289746 401.051906524 812.017183411C401.002825303 811.973114387 400.942397567 811.962377094 400.88251875 811.987364789C400.313516451 812.224811964 393.429377469 814.161052959 393.429377469 814.161052959C393.429377469 814.161052959 393.429360931 814.161002141 393.429327985 814.160900902C393.421808622 814.137795187 392.559582142 808.180006554 392.378631156 807.623975125C392.357406681 807.558755945 392.308852588 807.517701904 392.242544301 807.509325911C391.627837385 807.431676775 384.748367471 805.690437671 384.699044738 805.684207275C384.69865637 805.684158217 384.69850562 805.683924551 384.698594546 805.68350989C384.708735707 805.636222175 386.955735763 800.048746081 387.074791737 799.49359417C387.088322296 799.430501865 387.068153245 799.374463802 387.017953315 799.336513867C386.54690411 798.980412038 381.546644668 794.112329236 381.403350071 794.004001979C381.399025285 794.000732545 381.398565101 793.997109623 381.401991162 793.993328678C381.51190017 793.872034858 386.215891643 790.205708428 386.572727648 789.811909933C386.61156037 789.769054764 386.620931482 789.716696804 386.598892342 789.664454257C386.381536575 789.14922459 384.504407832 782.462782145 384.414487877 782.249631929C384.410927595 782.241192479 384.413690818 782.235335339 384.422563583 782.232474167C384.630417991 782.165448011 390.505385448 781.343597158 390.998714587 781.184514866C391.051809502 781.167393516 391.084864499 781.128447514 391.091744277 781.074572344C391.16133846 780.529583997 392.897775112 773.787071638 392.92648264 773.562264519C392.927589015 773.553600553 392.932651961 773.550070846 392.941308175 773.551910309C393.148992207 773.596043562 398.635393773 775.803920008 399.157488961 775.914866233C399.215877457 775.9272739 399.26775087 775.908569262 399.303309543 775.862040626C399.652302984 775.405381615 404.571753797 770.394135776 404.667583537 770.268742262C404.670080103 770.265475497 404.673041465 770.265315135 404.676323102 770.26826165C404.789063672 770.369489115 408.451117524 775.029334685 408.869563443 775.405048765C408.918644661 775.449117793 408.979072396 775.459855088 409.038951212 775.434867395C409.607953498 775.197420238 416.49209242 773.261179088 416.49209242 773.261179088"
         style="opacity:1.0;stroke-opacity:0.872340425;fill-opacity:0.89361704;stroke:#6f0808;stroke-miterlimit:4;stroke-dasharray:none;stroke-width:2.0;fill:#f05334" />
    </g>
    <g
       id="g3419">
      <path
         style="opacity:1.0;stroke-opacity:0.9707448;fill-opacity:0.95478722;stroke:#d24d0f;stroke-miterlimit:4;stroke-dasharray:none;stroke-width:2.0;fill:#f29f53"
         d="M412.39003208 806.578836263C412.39003208 806.578836263 413.003283057 803.064493695 413.192528476 802.596853992C413.227055931 802.511534046 413.297366386 802.454787911 413.382688298 802.44401014C413.881784223 802.380964885 417.836751753 801.276499874 417.863459481 801.273126183C417.863669778 801.273099619 417.863755999 801.272948205 417.863717037 801.272674277C417.859522624 801.243185275 416.62641732 797.907770142 416.556989278 797.419653287C416.544511427 797.331927217 416.575868063 797.250992325 416.642243701 797.200813953C417.028932941 796.908486269 419.851633227 794.020207892 419.934116103 793.957852839C419.936776841 793.955841386 419.936929651 793.953264247 419.934572423 793.950267255C419.868291794 793.865997726 417.157722909 791.633261751 416.86559005 791.261842549C416.813483499 791.195594014 416.800736761 791.114584824 416.831389643 791.041923891C417.013601934 790.609999898 417.999231475 786.722601634 418.053602021 786.593719312C418.056043147 786.587932758 418.054062764 786.583625916 418.047820791 786.581122925C417.917511067 786.528869563 414.472457796 785.953357974 414.040954844 785.780328063C413.963989415 785.749465421 413.913243165 785.68666697 413.903389965 785.609507042C413.844336549 785.147062643 412.74419951 781.286640724 412.726454292 781.147678789C412.725657568 781.141439682 412.721776979 781.13868872 412.715114033 781.139627797C412.576496135 781.159164634 409.313997344 782.373142027 408.847640314 782.438870489C408.762554389 782.450862517 408.684183906 782.420712544 408.63530649 782.356756297C408.343600683 781.97505836 405.428609189 779.149888461 405.373029238 779.077161925C405.371466749 779.075117404 405.36931577 779.075123389 405.3666878 779.077171529C405.28785915 779.138607611 403.055074441 781.826703653 402.672104087 782.125176328C402.600920831 782.180653878 402.513478721 782.194416324 402.435630509 782.161929921C401.971189135 781.968116485 397.964232212 780.945620821 397.964232212 780.945620821C397.964232212 780.945620821 397.964179878 780.945750141 397.964076028 780.946006763C397.952934978 780.973537136 397.348892016 784.465125772 397.161576992 784.92799532C397.127145675 785.013077699 397.056897752 785.069669318 396.971575842 785.080447092C396.472479925 785.143492366 392.517512486 786.247957311 392.490804759 786.251331003C392.490594462 786.251357567 392.490508241 786.251508982 392.490547203 786.25178291C392.494741616 786.281271912 393.72784692 789.616686995 393.797274962 790.104803875C393.809752813 790.19252995 393.778396177 790.273464848 393.712020539 790.323643229C393.325331299 790.615970958 390.502631013 793.504249489 390.420148137 793.566604551C390.417487399 793.568616005 390.417334589 793.571193144 390.419691817 793.574190136C390.485972446 793.658459665 393.196541331 795.891195419 393.48867419 796.262614621C393.540780741 796.328863155 393.553527479 796.409872348 393.522874597 796.482533287C393.340662306 796.91445731 392.355032765 800.801855594 392.300662219 800.930737925C392.298221093 800.936524479 392.300201476 800.940831321 392.306443449 800.943334313C392.43675317 800.99558768 395.881806311 801.571099421 396.313309252 801.744129351C396.390274678 801.774991997 396.44102093 801.837790446 396.450874135 801.914950367C396.509927577 802.377394726 397.610064824 806.23781627 397.627810051 806.376778193C397.628606775 806.3830173 397.632487364 806.385768261 397.639150309 806.384829185C397.777768201 806.365292359 401.040266935 805.151315237 401.506623942 805.085586812C401.591709862 805.07359479 401.670080341 805.103744767 401.718957755 805.167701015C402.010663548 805.549398957 404.925655053 808.374568929 404.981235002 808.447295467C404.982797491 808.449339988 404.98494847 808.449334003 404.98757644 808.447285861C405.066405093 808.38584977 407.299189908 805.697753503 407.682160275 805.399280779C407.753343533 805.34380322 407.840785643 805.330040767 407.918633854 805.362527167C408.383075218 805.55634059 412.39003208 806.578836263 412.39003208 806.578836263"
         id="path3421" />
    </g>
    <g
       id="g3833">
      <path
         id="path3835"
         d="M407.45974532 797.933999788C407.45974532 797.933999788 407.62051483 796.500659685 407.62051483 796.500659685C407.62051483 796.500659685 409.30760815 796.14310146 409.30760815 796.14310146C409.30760815 796.14310146 408.72648074 794.821774868 408.72648074 794.821774868C408.72648074 794.821774868 410.007887193 793.672896061 410.007887193 793.672896061C410.007887193 793.672896061 408.840575372 792.817631422 408.840575372 792.817631422C408.840575372 792.817631422 409.37294298 791.185273167 409.37294298 791.185273167C409.37294298 791.185273167 407.932226968 791.025237992 407.932226968 791.025237992C407.932226968 791.025237992 407.572908353 789.346789186 407.572908353 789.346789186C407.572908353 789.346789186 406.244827021 789.924864815 406.244827021 789.924864815C406.244827021 789.924864815 405.090101171 788.650064655 405.090101171 788.650064655C405.090101171 788.650064655 404.230512704 789.811356003 404.230512704 789.811356003C404.230512704 789.811356003 402.589787657 789.281786142 402.589787657 789.281786142C402.589787657 789.281786142 402.429018116 790.715126238 402.429018116 790.715126238C402.429018116 790.715126238 400.74192481 791.072684505 400.74192481 791.072684505C400.74192481 791.072684505 401.32305222 792.394011028 401.32305222 792.394011028C401.32305222 792.394011028 400.041645767 793.542889974 400.041645767 793.542889974C400.041645767 793.542889974 401.208957588 794.39815444 401.208957588 794.39815444C401.208957588 794.39815444 400.67658998 796.030512815 400.67658998 796.030512815C400.67658998 796.030512815 402.117305964 796.190548031 402.117305964 796.190548031C402.117305964 796.190548031 402.476624642 797.86899671 402.476624642 797.86899671C402.476624642 797.86899671 403.804705995 797.290921216 403.804705995 797.290921216C403.804705995 797.290921216 404.959431789 798.565721379 404.959431789 798.565721379C404.959431789 798.565721379 405.819020252 797.404429951 405.819020252 797.404429951C405.819020252 797.404429951 407.45974532 797.933999788 407.45974532 797.933999788"
         style="opacity:1.0;stroke-opacity:0.98936169;fill-opacity:1.0;stroke:#96680b;stroke-miterlimit:4;stroke-dasharray:none;stroke-width:2.0;fill:#f5e287" />
    </g>
  </g>
</svg>
