<?xml version="1.0" encoding="UTF-8" standalone="no"?>
<!-- Created with Inkscape (http://www.inkscape.org/) -->

<svg
   xmlns:dc="http://purl.org/dc/elements/1.1/"
   xmlns:cc="http://creativecommons.org/ns#"
   xmlns:rdf="http://www.w3.org/1999/02/22-rdf-syntax-ns#"
   xmlns:svg="http://www.w3.org/2000/svg"
   xmlns="http://www.w3.org/2000/svg"
   xmlns:sodipodi="http://sodipodi.sourceforge.net/DTD/sodipodi-0.dtd"
   xmlns:inkscape="http://www.inkscape.org/namespaces/inkscape"
   width="32"
   height="32"
   id="svg4821"
   version="1.1"
   inkscape:version="0.48.2 r9819"
   sodipodi:docname="snowflake.svg"
   inkscape:export-filename="C:\Users\Guilherme Baptista\workspace\CS638-Game\cs638-game-android\assets\bullet.png"
   inkscape:export-xdpi="90"
   inkscape:export-ydpi="90">
  <defs
     id="defs4823">
    <linearGradient
       id="linearGradient2997">
      <stop
         style="stop-color:#404042;stop-opacity:1;"
         offset="0"
         id="stop2999" />
      <stop
         style="stop-color:#000000;stop-opacity:1;"
         offset="1"
         id="stop3001" />
    </linearGradient>
  </defs>
  <sodipodi:namedview
     id="base"
     pagecolor="#ffffff"
     bordercolor="#666666"
     borderopacity="1.0"
     inkscape:pageopacity="0.0"
     inkscape:pageshadow="2"
     inkscape:zoom="12.843752"
     inkscape:cx="10.241585"
     inkscape:cy="24.673302"
     inkscape:document-units="px"
     inkscape:current-layer="layer1"
     showgrid="false"
     inkscape:window-width="1031"
     inkscape:window-height="872"
     inkscape:window-x="104"
     inkscape:window-y="104"
     inkscape:window-maximized="0"
     fit-margin-top="0"
     fit-margin-left="0"
     fit-margin-right="0"
     fit-margin-bottom="0" />
  <metadata
     id="metadata4826">
    <rdf:RDF>
      <cc:Work
         rdf:about="">
        <dc:format>image/svg+xml</dc:format>
        <dc:type
           rdf:resource="http://purl.org/dc/dcmitype/StillImage" />
        <dc:title></dc:title>
      </cc:Work>
    </rdf:RDF>
  </metadata>
  <g
     inkscape:label="Layer 1"
     inkscape:groupmode="layer"
     id="layer1"
     transform="translate(349.50387,-755.61326)">
    <path
       style="color:#000000;fill:#00ffff;fill-opacity:1;fill-rule:evenodd;stroke:#000000;stroke-width:0.12827836;stroke-linecap:butt;stroke-linejoin:miter;stroke-miterlimit:4;stroke-opacity:1;stroke-dasharray:none;stroke-dashoffset:0;marker:none;visibility:visible;display:inline;overflow:visible;enable-background:accumulate"
       d="m -319.64624,779.63813 -0.69707,-1.39437 -0.0332,-0.019 -0.0173,-0.01 0.01,-0.0162 -3.29303,-1.90585 2.37169,-0.63123 0.01,-0.0162 0.0101,-0.0162 0.23455,-0.94325 0.01,-0.0162 -0.67764,-0.70048 -0.0258,0.007 -0.007,-0.0261 -4.07526,1.09865 -4.00453,-2.31779 0.13279,-0.0772 0.0992,0.0575 0.0259,-0.007 0.94114,-0.44625 -0.043,-0.72957 0.0298,-0.51123 -0.93166,-0.45118 -0.0173,-0.01 -0.0173,-0.01 -0.0972,0.0538 -0.0827,-0.048 4.01697,-2.29945 4.02441,1.09596 0.002,-0.0425 0.69788,-0.67509 -0.24368,-0.95581 -0.007,-0.0261 -0.0173,-0.01 -2.30678,-0.63037 3.23913,-1.86895 -0.007,-0.0261 0.0259,-0.007 0.7236,-1.40891 -1.55051,-0.10462 -0.0359,0.023 -0.0259,0.007 -0.0173,-0.01 -3.27492,1.89193 0.63369,-2.36378 -0.007,-0.0261 -0.0173,-0.01 -0.70371,-0.69353 -0.0173,-0.01 -0.92872,0.23322 -0.01,0.0162 -0.0259,0.007 -1.06683,4.07291 -4.00039,2.30904 4e-4,-0.1539 0.0972,-0.0538 0.01,-0.0161 0.0691,-1.03901 -0.63134,-0.32132 -0.44429,-0.3012 -0.85385,0.56283 -0.01,0.0162 -0.0259,0.007 -0.008,0.12778 -0.0712,0.0469 -0.004,-4.62672 2.9508,-2.93854 -0.0239,-0.0354 -0.2532,-0.93926 -0.95111,-0.26417 -0.0173,-0.01 -0.0259,0.007 -1.6808,1.6917 -0.0208,-3.75545 -0.0173,-0.01 0.01,-0.0161 -0.86295,-1.33626 -0.85341,1.28974 -0.002,0.0425 -0.01,0.0162 -0.0258,0.007 0.0182,3.79808 -1.73798,-1.73251 -0.0173,-0.01 -0.0259,0.007 -0.93826,0.2497 -0.01,0.0162 -0.26763,0.9241 0.0173,0.01 -0.019,0.033 3.00845,2.97427 0.004,4.62671 -0.13239,-0.0767 -0.002,-0.11132 -0.0173,-0.01 -0.87209,-0.59276 -0.54315,0.36831 -0.51919,0.25 0.0778,1.01391 0.007,0.0261 -0.01,0.0161 0.0994,0.0574 0.002,0.11132 -4.0211,-2.32735 -1.07362,-4.03449 -0.0259,0.007 -0.95105,-0.26419 -0.70744,0.69162 -0.01,0.0162 -0.01,0.0161 0.62596,2.32207 -3.25992,-1.88674 -0.01,0.0162 -0.0173,-0.01 -1.58648,0.0728 0.69706,1.39435 0.0332,0.019 0.0173,0.01 -0.01,0.0162 3.29305,1.90585 -2.3717,0.63127 -0.01,0.0161 -0.01,0.0162 -0.23452,0.94327 -0.01,0.0162 0.67764,0.70047 0.0259,-0.007 0.007,0.0261 4.07527,-1.09863 4.00451,2.31778 -0.12334,0.0608 -0.0992,-0.0575 -0.01,0.0162 -0.95069,0.46273 0.041,0.61825 -0.0443,0.61298 0.93168,0.45107 0.0173,0.01 0.0173,0.01 0.10696,-0.0698 0.0994,0.0575 -4.02617,2.31643 -4.01495,-1.11248 -0.019,0.0329 -0.69084,0.70118 0.24368,0.95579 0.0173,0.01 0.007,0.0261 2.31627,0.61386 -3.2489,1.885 -0.01,0.0161 -0.72359,1.4089 1.55052,0.10466 0.0355,-0.0239 0.0173,0.01 3.30097,-1.8989 -0.64323,2.38026 0.0173,0.01 0.007,0.0261 0.69668,0.66745 0.007,0.0261 0.95479,-0.24013 -0.007,-0.0261 0.0426,0.002 1.06682,-4.0729 4.00041,-2.30905 -0.008,0.12778 -0.10707,0.0699 0.007,0.0261 -0.0786,1.05552 0.62425,0.29529 0.45137,0.32723 0.8468,-0.5889 0.0258,-0.007 0.01,-0.0162 -0.002,-0.11132 0.0973,-0.0539 -0.005,4.64323 -2.94131,2.92201 0.007,0.0261 0.26021,0.96535 0.9511,0.26419 0.0259,-0.007 0.0173,0.01 1.69032,-1.70823 0.0208,3.75549 0.007,0.0261 0.86303,1.33622 0.8534,-1.28974 0.002,-0.0425 0.0101,-0.0162 0.008,-3.80502 1.72843,1.74903 0.0258,-0.007 0.0173,0.01 0.93122,-0.27582 0.0173,0.01 0.27714,-0.94061 -0.0331,-0.019 0.0359,-0.023 -3.00844,-2.97425 -0.004,-4.62673 0.1158,0.067 -0.008,0.12779 0.0173,0.01 0.87209,0.59276 0.54314,-0.36831 0.53571,-0.24047 -0.0848,-1.04001 0.01,-0.0162 -0.007,-0.0261 -0.11581,-0.067 0.005,-0.0853 4.02108,2.32735 1.07363,4.03453 0.0259,-0.007 0.95109,0.26415 0.7074,-0.69161 0.01,-0.0162 0.01,-0.0161 -0.62598,-2.32211 3.25992,1.88674 0.01,-0.0162 0.0173,0.01 1.58651,-0.0728 z m -12.83172,-7.44823 -0.96526,0.56423 -0.97652,-0.56468 -0.0108,-1.12953 0.9817,-0.5549 0.47977,0.278 0.49626,0.28756 -0.005,1.11995 z"
       id="rect3778-48-51"
       inkscape:connector-curvature="0" />
  </g>
</svg>
