<?xml version="1.0" encoding="UTF-8" standalone="no"?>
<!-- Created with Inkscape (http://www.inkscape.org/) -->

<svg
   xmlns:dc="http://purl.org/dc/elements/1.1/"
   xmlns:cc="http://creativecommons.org/ns#"
   xmlns:rdf="http://www.w3.org/1999/02/22-rdf-syntax-ns#"
   xmlns:svg="http://www.w3.org/2000/svg"
   xmlns="http://www.w3.org/2000/svg"
   xmlns:sodipodi="http://sodipodi.sourceforge.net/DTD/sodipodi-0.dtd"
   xmlns:inkscape="http://www.inkscape.org/namespaces/inkscape"
   sodipodi:docname="C:\Users\GUILHE~1\AppData\Local\Temp\ink_ext_XXXXXX.svgRS2BNW"
   inkscape:version="0.48.2 r9819"
   version="1.1"
   id="svg2986"
   height="50.451447">
  <sodipodi:namedview
     id="base"
     pagecolor="#ffffff"
     bordercolor="#666666"
     borderopacity="1.0"
     inkscape:pageopacity="0.0"
     inkscape:pageshadow="2"
     inkscape:zoom="4.8601402"
     inkscape:cx="83.916901"
     inkscape:cy="25.790899"
     inkscape:document-units="px"
     inkscape:current-layer="layer1"
     showgrid="true"
     fit-margin-top="0"
     fit-margin-left="0"
     fit-margin-right="0"
     fit-margin-bottom="0"
     inkscape:snap-global="false"
     inkscape:window-width="1280"
     inkscape:window-height="706"
     inkscape:window-x="-8"
     inkscape:window-y="-8"
     inkscape:window-maximized="1">
    <inkscape:grid
       type="xygrid"
       id="grid3006"
       empspacing="5"
       visible="true"
       enabled="true"
       snapvisiblegridlinesonly="true" />
  </sodipodi:namedview>
  <defs
     id="defs2988" />
  <metadata
     id="metadata2991">
    <rdf:RDF>
      <cc:Work
         rdf:about="">
        <dc:format>image/svg+xml</dc:format>
        <dc:type
           rdf:resource="http://purl.org/dc/dcmitype/StillImage" />
      </cc:Work>
    </rdf:RDF>
  </metadata>
  <g
     inkscape:label="Layer 1"
     inkscape:groupmode="layer"
     id="layer1"
     transform="translate(-316.47353,-776.17708)">
    <g
       id="g4180">
      <path
         transform="matrix(0.69806475,0,0,0.75041961,331.61278,790.22884)"
         d="m 22,-8.0000034 0,8.99999922 10.624355,1.34936558 -4.499999,7.7942286 8.526279,6.480762 -7.794228,4.5 L 33,30.999996 l -9,0 -1.349365,10.624356 -7.794228,-4.5 -6.4807628,8.526279 -4.4999999,-7.794228 -9.8756442,4.143593 -3e-7,-8.999999 -10.6243548,-1.349366 4.499999,-7.794228 -8.526279,-6.480763 7.794228,-4.499999 L -17,2.9999963 l 8.9999996,-4e-7 1.3493656,-10.6243551 7.7942281,4.4999993 6.4807625,-8.5262791 4.5000002,7.7942283 z"
         inkscape:randomized="0"
         inkscape:rounded="0"
         inkscape:flatsided="false"
         sodipodi:arg2="-0.85196633"
         sodipodi:arg1="-1.060308"
         sodipodi:r2="21.260292"
         sodipodi:r1="28.653097"
         sodipodi:cy="16.999996"
         sodipodi:cx="8"
         sodipodi:sides="12"
         id="path3044"
         style="fill:#ff4a26;fill-opacity:1;stroke:#770000;stroke-width:2;stroke-miterlimit:4;stroke-opacity:1;stroke-dasharray:none"
         sodipodi:type="star" />
      <path
         transform="matrix(0.42178539,0,0,-0.45341929,334.01256,810.74246)"
         d="m 22,-8.0000034 0,8.99999922 10.624355,1.34936558 -4.499999,7.7942286 8.526279,6.480762 -7.794228,4.5 L 33,30.999996 l -9,0 -1.349365,10.624356 -7.794228,-4.5 -6.4807628,8.526279 -4.4999999,-7.794228 -9.8756442,4.143593 -3e-7,-8.999999 -10.6243548,-1.349366 4.499999,-7.794228 -8.526279,-6.480763 7.794228,-4.499999 L -17,2.9999963 l 8.9999996,-4e-7 1.3493656,-10.6243551 7.7942281,4.4999993 6.4807625,-8.5262791 4.5000002,7.7942283 z"
         inkscape:randomized="0"
         inkscape:rounded="0"
         inkscape:flatsided="false"
         sodipodi:arg2="-0.85196633"
         sodipodi:arg1="-1.060308"
         sodipodi:r2="21.260292"
         sodipodi:r1="28.653097"
         sodipodi:cy="16.999996"
         sodipodi:cx="8"
         sodipodi:sides="12"
         id="path3044-1"
         style="fill:#ff9f47;fill-opacity:1;stroke:#e14800;stroke-width:2;stroke-miterlimit:4;stroke-opacity:1;stroke-dasharray:none"
         sodipodi:type="star" />
      <path
         transform="matrix(0.19661558,0,0,-0.21136175,335.68047,806.48144)"
         d="m 22,-8.0000034 0,8.99999922 10.624355,1.34936558 -4.499999,7.7942286 8.526279,6.480762 -7.794228,4.5 L 33,30.999996 l -9,0 -1.349365,10.624356 -7.794228,-4.5 -6.4807628,8.526279 -4.4999999,-7.794228 -9.8756442,4.143593 -3e-7,-8.999999 -10.6243548,-1.349366 4.499999,-7.794228 -8.526279,-6.480763 7.794228,-4.499999 L -17,2.9999963 l 8.9999996,-4e-7 1.3493656,-10.6243551 7.7942281,4.4999993 6.4807625,-8.5262791 4.5000002,7.7942283 z"
         inkscape:randomized="0"
         inkscape:rounded="0"
         inkscape:flatsided="false"
         sodipodi:arg2="-0.85196633"
         sodipodi:arg1="-1.060308"
         sodipodi:r2="21.260292"
         sodipodi:r1="28.653097"
         sodipodi:cy="16.999996"
         sodipodi:cx="8"
         sodipodi:sides="12"
         id="path3044-1-7"
         style="fill:#ffe97d;fill-opacity:1;stroke:#b07600;stroke-width:2;stroke-miterlimit:4;stroke-opacity:1;stroke-dasharray:none"
         sodipodi:type="star" />
    </g>
    <g
       id="g4170">
      <path
         transform="matrix(0.80421081,0,0,0.86452663,391.22976,788.31514)"
         d="m 20.911559,-5.9749988 2.201305,6.79527148 7.556372,2.73857392 -1.49125,6.9855304 5.174723,6.14986 -4.784225,5.304021 1.406511,7.913297 -6.795271,2.201305 -2.738574,7.556372 -6.98553,-1.49125 -6.1498609,5.174723 -5.3040214,-4.784225 -7.913297,1.406511 -2.2013046,-6.795271 -7.5563721,-2.738574 1.49125,-6.98553 -5.174723,-6.149861 4.784225,-5.304021 -1.406511,-7.9132971 6.7952715,-2.2013046 2.7385739,-7.5563719 6.98553,1.49125 6.1498605,-5.1747231 5.3040211,4.7842254 z"
         inkscape:randomized="0"
         inkscape:rounded="0"
         inkscape:flatsided="false"
         sodipodi:arg2="-0.81947801"
         sodipodi:arg1="-1.0587996"
         sodipodi:r2="22.140057"
         sodipodi:r1="26.354483"
         sodipodi:cy="16.999996"
         sodipodi:cx="8"
         sodipodi:sides="12"
         id="path3044-0"
         style="fill:#e25d43;fill-opacity:0.78723408;stroke:#671010;stroke-width:2;stroke-miterlimit:4;stroke-opacity:0.74468085;stroke-dasharray:none"
         sodipodi:type="star" />
      <path
         transform="matrix(0.47677523,0,0,-0.51253336,394.03879,811.77352)"
         d="m 22,-8.0000034 2.937519,7.29213934 7.686836,3.05722546 -1.102103,7.7839376 5.128383,6.491053 -4.846419,6.190036 L 33,30.999996 l -7.29214,2.937519 -3.057225,7.686837 -7.783938,-1.102104 -6.4910528,5.128383 -6.190036,-4.846418 -8.1856081,1.195783 -2.9375193,-7.29214 -7.6868358,-3.057225 1.102103,-7.783938 -5.128383,-6.491053 4.846419,-6.190036 L -17,2.9999963 l 7.2921398,-2.93751932 3.0572254,-7.68683618 7.7839376,1.1021034 6.491053,-5.1283832 6.1900362,4.8464188 z"
         inkscape:randomized="0"
         inkscape:rounded="0"
         inkscape:flatsided="false"
         sodipodi:arg2="-0.80762953"
         sodipodi:arg1="-1.060308"
         sodipodi:r2="24.504038"
         sodipodi:r1="28.653097"
         sodipodi:cy="16.999996"
         sodipodi:cx="8"
         sodipodi:sides="12"
         id="path3044-1-9"
         style="fill:#e6a060;fill-opacity:0.90957444;stroke:#c3531e;stroke-width:2;stroke-miterlimit:4;stroke-opacity:0.9414896;stroke-dasharray:none"
         sodipodi:type="star" />
      <path
         transform="matrix(0.11405753,0,0,-0.12261185,396.80707,804.99881)"
         d="m 22,-8.0000034 2.302352,7.21523079 8.322003,3.13413401 -1.61372,7.3997491 5.64,6.8752415 -5.097397,5.601511 L 33,30.999996 l -7.215231,2.302352 -3.134134,8.322004 -7.399749,-1.613721 -6.8752418,5.64 -5.6015107,-5.097397 -8.7741334,1.446762 -2.302352,-7.215231 -8.3220031,-3.134134 1.61372,-7.399749 -5.64,-6.875242 5.097397,-5.60151 L -17,2.9999963 l 7.2152312,-2.30235199 3.134134,-8.32200351 7.39974916,1.6137201 6.87524144,-5.6399999 5.6015102,5.0973977 z"
         inkscape:randomized="0"
         inkscape:rounded="0"
         inkscape:flatsided="false"
         sodipodi:arg2="-0.82885984"
         sodipodi:arg1="-1.060308"
         sodipodi:r2="24.126017"
         sodipodi:r1="28.653097"
         sodipodi:cy="16.999996"
         sodipodi:cx="8"
         sodipodi:sides="12"
         id="path3044-1-7-4"
         style="fill:#ebdc91;fill-opacity:1;stroke:#7c5b17;stroke-width:2;stroke-miterlimit:4;stroke-opacity:0.97872338;stroke-dasharray:none"
         sodipodi:type="star" />
    </g>
    <g
       id="g4175">
      <path
         transform="matrix(0.85479631,0,0,0.91890605,452.47304,785.65762)"
         d="m 20.911559,-5.9749988 2.201305,6.79527148 7.556372,2.73857392 -1.49125,6.9855304 5.174723,6.14986 -4.784225,5.304021 1.406511,7.913297 -6.795271,2.201305 -2.738574,7.556372 -6.98553,-1.49125 -6.1498609,5.174723 -5.3040214,-4.784225 -7.913297,1.406511 -2.2013046,-6.795271 -7.5563721,-2.738574 1.49125,-6.98553 -5.174723,-6.149861 4.784225,-5.304021 -1.406511,-7.9132971 6.7952715,-2.2013046 2.7385739,-7.5563719 6.98553,1.49125 6.1498605,-5.1747231 5.3040211,4.7842254 z"
         inkscape:randomized="0"
         inkscape:rounded="0"
         inkscape:flatsided="false"
         sodipodi:arg2="-0.81947801"
         sodipodi:arg1="-1.0587996"
         sodipodi:r2="22.140057"
         sodipodi:r1="26.354483"
         sodipodi:cy="16.999996"
         sodipodi:cx="8"
         sodipodi:sides="12"
         id="path3044-0-8"
         style="fill:#e25d43;fill-opacity:0.78723408;stroke:#770000;stroke-width:2;stroke-miterlimit:4;stroke-opacity:0.74468085;stroke-dasharray:none"
         sodipodi:type="star" />
      <path
         transform="matrix(0.62453324,0,0,-0.67137322,454.50469,812.74073)"
         d="m 22,-8.0000034 2.937519,7.29213934 7.686836,3.05722546 -1.102103,7.7839376 5.128383,6.491053 -4.846419,6.190036 L 33,30.999996 l -7.29214,2.937519 -3.057225,7.686837 -7.783938,-1.102104 -6.4910528,5.128383 -6.190036,-4.846418 -8.1856081,1.195783 -2.9375193,-7.29214 -7.6868358,-3.057225 1.102103,-7.783938 -5.128383,-6.491053 4.846419,-6.190036 L -17,2.9999963 l 7.2921398,-2.93751932 3.0572254,-7.68683618 7.7839376,1.1021034 6.491053,-5.1283832 6.1900362,4.8464188 z"
         inkscape:randomized="0"
         inkscape:rounded="0"
         inkscape:flatsided="false"
         sodipodi:arg2="-0.80762953"
         sodipodi:arg1="-1.060308"
         sodipodi:r2="24.504038"
         sodipodi:r1="28.653097"
         sodipodi:cy="16.999996"
         sodipodi:cx="8"
         sodipodi:sides="12"
         id="path3044-1-9-8"
         style="fill:#e6a060;fill-opacity:0.90957444;stroke:#c3531e;stroke-width:2;stroke-miterlimit:4;stroke-opacity:0.94117647;stroke-dasharray:none"
         sodipodi:type="star" />
      <path
         transform="matrix(0.04734055,0,0,-0.05089109,458.98877,802.04649)"
         d="m 22,-8.0000034 5.570984,4.1746425 5.053371,6.1747223 2.737293,6.4008387 1.288987,7.8741519 -0.829854,6.911935 L 33,30.999996 l -4.174643,5.570985 -6.174722,5.053371 -6.400839,2.737292 -7.8741518,1.288987 -6.9119353,-0.829854 -7.4637088,-2.820781 -5.5709841,-4.174643 -5.053371,-6.174722 -2.737293,-6.400839 -1.288987,-7.874152 0.829854,-6.911935 L -17,2.9999963 l 4.174643,-5.5709845 6.1747222,-5.053371 6.4008387,-2.7372928 7.8741519,-1.288987 6.9119352,0.829855 z"
         inkscape:randomized="0"
         inkscape:rounded="0"
         inkscape:flatsided="false"
         sodipodi:arg2="-0.81643983"
         sodipodi:arg1="-1.060308"
         sodipodi:r2="28.578295"
         sodipodi:r1="28.653097"
         sodipodi:cy="16.999996"
         sodipodi:cx="8"
         sodipodi:sides="12"
         id="path3044-1-7-4-2"
         style="fill:#ded39e;fill-opacity:1;stroke:#735820;stroke-width:2;stroke-miterlimit:4;stroke-opacity:0.98039216;stroke-dasharray:none"
         sodipodi:type="star" />
    </g>
  </g>
</svg>
