<?xml version="1.0" encoding="UTF-8" standalone="no"?>
<!-- Created with Inkscape (http://www.inkscape.org/) -->

<svg
   xmlns:dc="http://purl.org/dc/elements/1.1/"
   xmlns:cc="http://creativecommons.org/ns#"
   xmlns:rdf="http://www.w3.org/1999/02/22-rdf-syntax-ns#"
   xmlns:svg="http://www.w3.org/2000/svg"
   xmlns="http://www.w3.org/2000/svg"
   xmlns:sodipodi="http://sodipodi.sourceforge.net/DTD/sodipodi-0.dtd"
   xmlns:inkscape="http://www.inkscape.org/namespaces/inkscape"
   width="15.999994"
   height="31.999996"
   id="svg4821"
   version="1.1"
   inkscape:version="0.48.2 r9819"
   sodipodi:docname="enemy_bullet.svg"
   inkscape:export-filename="C:\Users\Guilherme Baptista\workspace\CS638-Game\cs638-game-android\assets\bullet.png"
   inkscape:export-xdpi="90"
   inkscape:export-ydpi="90">
  <defs
     id="defs4823">
    <linearGradient
       id="linearGradient2997">
      <stop
         style="stop-color:#404042;stop-opacity:1;"
         offset="0"
         id="stop2999" />
      <stop
         style="stop-color:#000000;stop-opacity:1;"
         offset="1"
         id="stop3001" />
    </linearGradient>
  </defs>
  <sodipodi:namedview
     id="base"
     pagecolor="#ffffff"
     bordercolor="#666666"
     borderopacity="1.0"
     inkscape:pageopacity="0.0"
     inkscape:pageshadow="2"
     inkscape:zoom="9.0819038"
     inkscape:cx="8.8296014"
     inkscape:cy="17.197154"
     inkscape:document-units="px"
     inkscape:current-layer="layer1"
     showgrid="false"
     inkscape:window-width="1031"
     inkscape:window-height="1011"
     inkscape:window-x="104"
     inkscape:window-y="0"
     inkscape:window-maximized="0"
     fit-margin-top="0"
     fit-margin-left="0"
     fit-margin-right="0"
     fit-margin-bottom="0" />
  <metadata
     id="metadata4826">
    <rdf:RDF>
      <cc:Work
         rdf:about="">
        <dc:format>image/svg+xml</dc:format>
        <dc:type
           rdf:resource="http://purl.org/dc/dcmitype/StillImage" />
        <dc:title></dc:title>
      </cc:Work>
    </rdf:RDF>
  </metadata>
  <g
     inkscape:label="Layer 1"
     inkscape:groupmode="layer"
     id="layer1"
     transform="translate(349.50387,-755.61326)">
    <path
       style="color:#000000;fill:#00ffff;fill-opacity:1;fill-rule:evenodd;stroke:#000000;stroke-width:0.05784546;stroke-linecap:butt;stroke-linejoin:miter;stroke-miterlimit:4;stroke-opacity:1;stroke-dashoffset:0;marker:none;visibility:visible;display:inline;overflow:visible;enable-background:accumulate"
       d="m -341.88982,753.57251 -1.40625,2.125 0,0.0625 0,0.0312 -0.0312,0 0,6.21875 -2.84375,-2.84375 -0.0312,0 -0.0312,0 -1.53125,0.4375 -0.0312,0 -0.4375,1.53125 0.0312,0.0312 -0.0312,0.0312 4.90625,4.875 0,7.5625 -1.8125,-1.0625 -0.0312,0.0312 -1.5625,0.75 0.125,1.6875 0,0.0312 0,0.0312 1.75,1.03125 -1.625,0.9375 1.46875,2.53125 3.09375,-1.78125 3.09375,1.78125 1.46875,-2.53125 -1.625,-0.9375 1.75,-1.03125 0,-0.0312 0.125,-1.71875 -1.53125,-0.75 -0.0312,0 -0.0312,-0.0312 -1.75,1.03125 0,-7.59375 4.84375,-4.8125 -0.0312,-0.0312 -0.40625,-1.5625 -1.5625,-0.4375 -0.0312,0 -0.0312,0 -2.78125,2.78125 0,-6.15625 -0.0312,0 0,-0.0312 -1.40625,-2.1875 z"
       id="rect3778-48-51"
       inkscape:connector-curvature="0"
       inkscape:transform-center-y="-13.078025" />
    <path
       inkscape:transform-center-y="13.078025"
       inkscape:connector-curvature="0"
       id="path3953"
       d="m -341.95177,805.75941 1.40625,-2.125 0,-0.0625 0,-0.0312 0.0312,0 0,-6.21875 2.84375,2.84375 0.0312,0 0.0312,0 1.53125,-0.4375 0.0312,0 0.4375,-1.53125 -0.0312,-0.0312 0.0312,-0.0312 -4.90625,-4.875 0,-7.5625 1.8125,1.0625 0.0312,-0.0312 1.5625,-0.75 -0.125,-1.6875 0,-0.0312 0,-0.0312 -1.75,-1.03125 1.625,-0.9375 -1.46875,-2.53125 -3.09375,1.78125 -3.09375,-1.78125 -1.46875,2.53125 1.625,0.9375 -1.75,1.03125 0,0.0312 -0.125,1.71875 1.53125,0.75 0.0312,0 0.0312,0.0312 1.75,-1.03125 0,7.59375 -4.84375,4.8125 0.0312,0.0312 0.40625,1.5625 1.5625,0.4375 0.0312,0 0.0312,0 2.78125,-2.78125 0,6.15625 0.0312,0 0,0.0312 1.40625,2.1875 z"
       style="color:#000000;fill:#00ffff;fill-opacity:1;fill-rule:evenodd;stroke:#000000;stroke-width:0.05784546;stroke-linecap:butt;stroke-linejoin:miter;stroke-miterlimit:4;stroke-opacity:1;stroke-dashoffset:0;marker:none;visibility:visible;display:inline;overflow:visible;enable-background:accumulate" />
    <path
       style="color:#000000;fill:#00ffff;fill-opacity:1;fill-rule:evenodd;stroke:#000000;stroke-width:0.05784546;stroke-linecap:butt;stroke-linejoin:miter;stroke-miterlimit:4;stroke-opacity:1;stroke-dashoffset:0;marker:none;visibility:visible;display:inline;overflow:visible;enable-background:accumulate"
       d="m -364.53387,792.68586 2.54343,0.15535 0.0541,-0.0312 0.027,-0.0156 0.0156,0.027 5.3856,-3.10938 -1.04089,3.88464 0.0156,0.027 0.0156,0.027 1.14451,1.10735 0.0156,0.027 1.54486,-0.38674 0.0114,-0.0426 0.0426,0.0114 1.76874,-6.68644 6.54932,-3.78125 -0.0139,2.10092 0.0426,0.0114 1.43077,0.97817 1.39892,-0.952 0.027,-0.0156 0.027,-0.0156 0.0181,-2.03117 1.62439,0.93854 1.45776,-2.5376 -3.08949,-1.78864 -0.004,-3.56989 -2.92651,-0.006 6.1e-4,1.87604 -1.76809,-0.99992 -0.027,0.0156 -1.55098,0.75112 0.1161,1.7011 0.0156,0.027 -0.0114,0.0426 1.76809,0.99992 -6.57638,3.79688 -6.58962,-1.78857 -0.0114,0.0426 -1.15004,1.13308 0.40236,1.57191 0.0156,0.027 0.0156,0.027 3.79926,1.01801 -5.33147,3.07813 0.0156,0.027 -0.027,0.0156 -1.1913,2.31159 z"
       id="path3955"
       inkscape:connector-curvature="0"
       inkscape:transform-center-y="6.23251"
       inkscape:transform-center-x="10.560295" />
    <path
       inkscape:transform-center-y="6.2324"
       inkscape:connector-curvature="0"
       id="path3957"
       d="m -319.33869,792.73951 -1.13718,-2.28035 -0.0541,-0.0312 -0.027,-0.0156 0.0156,-0.027 -5.38559,-3.10937 3.88463,-1.04089 0.0156,-0.027 0.0156,-0.027 0.38674,-1.54485 0.0156,-0.027 -1.10735,-1.14451 -0.0426,0.0114 -0.0114,-0.0426 -6.675,1.81144 -6.54932,-3.78125 1.82641,-1.03842 -0.0114,-0.0426 0.13173,-1.72817 -1.52392,-0.7355 -0.027,-0.0156 -0.027,-0.0156 -1.76809,0.99992 6e-4,-1.87604 -2.9265,0.006 -0.004,3.56989 -3.08948,1.78864 1.45775,2.5376 1.6244,-0.93854 0.0181,2.03117 0.027,0.0156 1.42598,0.96763 1.41514,-0.9511 0.0156,-0.027 0.0426,-0.0114 -0.0181,-2.03117 6.57639,3.79687 1.74587,6.60107 0.0426,-0.0114 1.55629,0.42942 1.16013,-1.13441 0.0156,-0.027 0.0156,-0.027 -1.018,-3.79926 5.33146,3.07812 0.0156,-0.027 0.027,0.0156 2.59756,-0.12409 z"
       style="color:#000000;fill:#00ffff;fill-opacity:1;fill-rule:evenodd;stroke:#000000;stroke-width:0.05784546;stroke-linecap:butt;stroke-linejoin:miter;stroke-miterlimit:4;stroke-opacity:1;stroke-dashoffset:0;marker:none;visibility:visible;display:inline;overflow:visible;enable-background:accumulate"
       inkscape:transform-center-x="-10.54497" />
    <path
       style="color:#000000;fill:#00ffff;fill-opacity:1;fill-rule:evenodd;stroke:#000000;stroke-width:0.05784546;stroke-linecap:butt;stroke-linejoin:miter;stroke-miterlimit:4;stroke-opacity:1;stroke-dashoffset:0;marker:none;visibility:visible;display:inline;overflow:visible;enable-background:accumulate"
       d="m -364.5029,766.59241 1.13718,2.28035 0.0541,0.0312 0.027,0.0156 -0.0156,0.027 5.38559,3.10937 -3.88463,1.04089 -0.0156,0.027 -0.0156,0.027 -0.38674,1.54485 -0.0156,0.027 1.10735,1.14451 0.0426,-0.0114 0.0114,0.0426 6.675,-1.81144 6.54932,3.78125 -1.82641,1.03842 0.0114,0.0426 -0.13173,1.72817 1.52392,0.7355 0.027,0.0156 0.027,0.0156 1.76809,-0.99992 -6e-4,1.87604 2.9265,-0.006 0.004,-3.56989 3.08948,-1.78864 -1.45775,-2.5376 -1.6244,0.93854 -0.0181,-2.03117 -0.027,-0.0156 -1.42598,-0.96763 -1.41514,0.9511 -0.0156,0.027 -0.0426,0.0114 0.0181,2.03117 -6.57639,-3.79687 -1.74587,-6.60107 -0.0426,0.0114 -1.55629,-0.42942 -1.16013,1.13441 -0.0156,0.027 -0.0156,0.027 1.018,3.79926 -5.33146,-3.07812 -0.0156,0.027 -0.027,-0.0156 -2.59756,0.12409 z"
       id="path3959"
       inkscape:connector-curvature="0"
       inkscape:transform-center-y="-6.2324"
       inkscape:transform-center-x="10.54497" />
    <path
       inkscape:transform-center-y="-6.232805"
       inkscape:connector-curvature="0"
       id="path3961"
       d="m -319.30772,766.64606 -2.54343,-0.15535 -0.0541,0.0313 -0.0271,0.0156 -0.0156,-0.0271 -5.38559,3.10937 1.04088,-3.88463 -0.0156,-0.0271 -0.0156,-0.0271 -1.14451,-1.10735 -0.0156,-0.0271 -1.54485,0.38674 -0.0114,0.0426 -0.0426,-0.0114 -1.76874,6.68644 -6.54933,3.78125 0.0139,-2.10093 -0.0426,-0.0114 -1.43077,-0.97816 -1.39892,0.952 -0.0271,0.0156 -0.0271,0.0156 -0.0181,2.03118 -1.62439,-0.93855 -1.45776,2.53761 3.08949,1.78863 0.004,3.5699 2.92651,0.006 -6.1e-4,-1.87604 1.7681,0.99992 0.0271,-0.0156 1.55097,-0.75112 -0.1161,-1.70111 -0.0156,-0.0271 0.0114,-0.0426 -1.76809,-0.99992 6.57638,-3.79687 6.58962,1.78856 0.0114,-0.0426 1.15004,-1.13307 -0.40237,-1.57192 -0.0156,-0.0271 -0.0156,-0.0271 -3.79926,-1.01801 5.33147,-3.07812 -0.0156,-0.0271 0.0271,-0.0156 1.1913,-2.31159 z"
       style="color:#000000;fill:#00ffff;fill-opacity:1;fill-rule:evenodd;stroke:#000000;stroke-width:0.05784546;stroke-linecap:butt;stroke-linejoin:miter;stroke-miterlimit:4;stroke-opacity:1;stroke-dashoffset:0;marker:none;visibility:visible;display:inline;overflow:visible;enable-background:accumulate"
       inkscape:transform-center-x="-10.56009" />
  </g>
</svg>
